<?xml version="1.0" standalone="no"?>
<!DOCTYPE svg PUBLIC "-//W3C//DTD SVG 20010904//EN"
 "http://www.w3.org/TR/2001/REC-SVG-20010904/DTD/svg10.dtd">
<svg version="1.0" xmlns="http://www.w3.org/2000/svg"
 width="800.000000pt" height="800.000000pt" viewBox="0 0 800.000000 800.000000"
 preserveAspectRatio="xMidYMid meet">
<metadata>
Created by potrace 1.14, written by Peter Selinger 2001-2017
</metadata>
<g transform="translate(0.000000,800.000000) scale(0.100000,-0.100000)"
fill="#000000" stroke="none">
<path d="M3835 7349 c-769 -88 -956 -122 -1288 -233 -89 -30 -261 -84 -382
-121 -401 -121 -680 -247 -895 -405 -36 -26 -141 -98 -235 -160 -109 -73 -195
-139 -240 -184 -39 -39 -100 -99 -137 -133 -38 -35 -78 -84 -93 -112 -25 -50
-25 -51 -25 -326 0 -151 -4 -275 -8 -275 -11 0 -32 -60 -32 -91 0 -31 -14 -51
-59 -84 -19 -14 -33 -25 -30 -26 2 0 60 -10 129 -22 l124 -22 31 -132 c16 -72
33 -135 37 -138 4 -4 72 7 152 25 l146 32 52 -32 52 -32 43 21 44 21 74 -42
74 -43 17 -70 c25 -105 24 -104 83 -36 29 33 71 75 93 93 l41 32 22 -28 c12
-16 25 -24 27 -20 3 5 13 51 23 102 10 51 22 92 29 92 6 0 116 -23 244 -51
203 -43 278 -54 564 -82 l330 -32 245 20 245 21 18 -41 c9 -22 28 -68 41 -102
13 -35 27 -63 30 -63 4 0 44 42 89 93 l82 92 76 11 77 12 126 -65 125 -66 145
84 c127 73 292 149 323 149 6 0 58 -47 116 -105 l104 -104 65 46 c36 26 84 59
106 74 32 23 58 31 135 40 l96 11 204 -62 c112 -34 211 -62 219 -62 9 -1 91
22 183 51 165 51 168 52 200 35 18 -9 46 -26 61 -38 28 -20 128 -162 202 -285
26 -43 40 -59 45 -50 4 8 15 55 25 105 l17 92 111 41 c62 22 115 37 118 33 3
-4 14 -56 23 -117 16 -99 109 -450 125 -467 3 -4 2 62 -3 145 l-8 153 41 82
c41 81 41 82 41 193 0 110 0 111 23 106 78 -19 175 -18 252 2 44 11 130 25
191 31 l110 11 71 -40 c38 -23 73 -41 77 -41 4 0 33 18 65 40 41 27 85 46 145
61 48 12 85 23 83 25 -2 2 -253 8 -558 14 -537 9 -1033 20 -1959 40 -245 5
-830 14 -1300 20 -470 5 -1098 15 -1395 21 -607 12 -578 9 -1033 105 l-263 55
-136 84 c-76 47 -140 90 -144 97 -4 7 -39 105 -78 217 l-71 203 95 183 c97
186 104 195 160 195 17 0 18 -2 5 -11 -11 -7 -4 -8 24 -3 29 5 37 4 31 -5 -5
-9 3 -10 30 -5 28 5 36 4 30 -5 -5 -9 3 -10 30 -5 28 5 36 4 30 -5 -5 -9 3
-11 32 -6 29 5 35 4 23 -5 -12 -9 -5 -10 30 -5 33 5 41 3 30 -5 -11 -8 -3 -9
30 -4 34 4 41 3 30 -6 -12 -8 -6 -9 24 -4 29 5 37 4 31 -5 -5 -9 3 -10 30 -5
28 5 36 4 30 -5 -5 -9 3 -11 32 -6 29 5 35 4 23 -5 -12 -9 -5 -10 30 -5 33 5
41 3 30 -5 -11 -8 -3 -9 30 -4 34 4 41 3 30 -6 -12 -8 -6 -9 24 -4 29 5 37 4
31 -5 -5 -9 3 -10 30 -5 28 5 36 4 30 -5 -5 -9 3 -10 30 -5 28 5 36 4 30 -5
-5 -9 3 -11 32 -6 29 5 35 4 23 -5 -12 -9 -5 -10 30 -5 33 5 41 3 30 -5 -11
-8 -3 -9 30 -4 34 4 41 3 30 -6 -12 -8 -6 -9 24 -4 29 5 37 4 31 -5 -5 -9 3
-10 30 -5 28 5 36 4 30 -5 -5 -9 3 -11 32 -6 29 5 35 4 23 -5 -12 -9 -5 -10
30 -5 33 5 41 3 30 -5 -11 -8 -3 -9 30 -4 34 4 41 3 30 -6 -12 -8 -6 -9 24 -4
29 5 37 4 31 -5 -5 -9 3 -10 30 -5 28 5 36 4 30 -5 -5 -9 3 -11 32 -6 29 5 35
4 23 -5 -12 -9 -5 -10 30 -5 34 5 41 4 30 -5 -11 -9 -4 -10 30 -5 34 5 41 3
30 -5 -11 -8 -6 -9 24 -4 29 5 37 4 31 -5 -5 -9 3 -10 30 -5 28 5 36 4 30 -5
-5 -9 3 -10 30 -5 29 5 36 4 30 -6 -6 -9 1 -10 26 -5 44 9 44 10 31 40 -7 14
-12 31 -12 38 0 10 130 67 153 67 4 0 7 -29 7 -64 l0 -63 -67 -7 c-38 -4 -75
-11 -83 -17 -11 -7 -2 -8 30 -4 33 5 41 3 30 -5 -11 -8 -3 -9 30 -4 34 4 41 3
30 -6 -12 -8 -6 -9 24 -4 29 5 37 4 31 -5 -5 -9 3 -10 30 -5 28 5 36 4 30 -5
-5 -9 3 -11 32 -6 29 5 35 4 23 -5 -12 -9 -5 -10 30 -5 33 5 41 3 30 -5 -11
-8 -3 -9 30 -4 34 4 41 3 30 -6 -12 -8 -6 -9 24 -4 29 5 37 4 31 -5 -5 -9 3
-10 30 -5 28 5 36 4 30 -5 -5 -9 3 -10 30 -5 28 5 36 4 30 -5 -5 -9 3 -11 32
-6 29 5 35 4 23 -5 -12 -9 -5 -10 30 -5 33 5 41 3 30 -5 -11 -8 -3 -9 30 -4
34 4 41 3 30 -6 -12 -8 -6 -9 24 -4 29 5 37 4 31 -5 -5 -9 3 -10 30 -5 28 5
36 4 30 -5 -5 -9 3 -11 32 -6 29 5 35 4 23 -5 -12 -9 -5 -10 30 -5 33 5 41 3
30 -5 -11 -8 -3 -9 30 -4 34 4 41 3 30 -6 -12 -8 -6 -9 24 -4 29 5 37 4 31 -5
-5 -9 3 -10 30 -5 28 5 36 4 30 -5 -5 -9 3 -10 30 -5 28 5 36 4 30 -5 -5 -9 3
-11 32 -6 29 5 35 4 23 -5 -12 -9 -5 -10 30 -5 33 5 41 3 30 -5 -11 -8 -3 -9
30 -4 34 4 41 3 30 -6 -12 -8 -6 -9 24 -4 29 5 37 4 31 -5 -5 -9 3 -10 30 -5
28 5 36 4 30 -5 -5 -9 3 -11 32 -6 29 5 35 4 23 -5 -12 -9 -5 -10 30 -5 33 5
41 3 30 -5 -11 -8 -3 -9 30 -4 34 4 41 3 30 -6 -12 -8 -6 -9 24 -4 29 5 37 4
31 -5 -5 -9 3 -10 30 -5 28 5 36 4 30 -5 -5 -9 3 -10 30 -5 28 5 36 4 30 -5
-5 -9 3 -11 32 -6 29 5 35 4 23 -5 -12 -9 -5 -10 30 -5 33 5 41 3 30 -5 -11
-8 -3 -9 30 -4 34 4 41 3 30 -6 -12 -8 -6 -9 24 -4 29 5 37 4 31 -5 -5 -9 3
-10 30 -5 28 5 36 4 30 -5 -5 -9 3 -11 32 -6 29 5 35 4 23 -5 -12 -9 -5 -10
30 -5 33 5 41 3 30 -5 -11 -8 -3 -9 30 -4 34 4 41 3 30 -6 -12 -8 -6 -9 24 -4
29 5 37 4 31 -5 -5 -9 3 -10 30 -5 28 5 36 4 30 -5 -5 -9 3 -10 30 -5 28 5 36
4 30 -5 -5 -9 3 -11 32 -6 29 5 35 4 23 -5 -12 -9 -5 -10 30 -5 33 5 41 3 30
-5 -11 -8 -3 -9 30 -4 34 4 41 3 30 -6 -12 -8 -6 -9 24 -4 29 5 37 4 31 -5 -5
-9 3 -10 30 -5 28 5 36 4 30 -5 -5 -9 3 -11 32 -6 29 5 35 4 23 -5 -12 -9 -5
-10 30 -5 33 5 41 3 30 -5 -11 -8 -3 -9 30 -4 34 4 41 3 30 -6 -12 -8 -6 -9
24 -4 29 5 37 4 31 -5 -5 -9 3 -10 30 -5 28 5 36 4 30 -5 -5 -9 3 -10 30 -5
28 5 36 4 30 -5 -5 -9 3 -11 32 -6 29 5 35 4 23 -5 -12 -9 -5 -10 30 -5 33 5
41 3 30 -5 -11 -8 -3 -9 30 -4 34 4 41 3 30 -6 -12 -8 -6 -9 24 -4 29 5 37 4
31 -5 -5 -9 3 -10 30 -5 28 5 36 4 30 -5 -5 -9 3 -11 32 -6 29 5 35 4 23 -5
-12 -9 -5 -10 30 -5 33 5 41 3 30 -5 -11 -8 -3 -9 30 -4 34 4 41 3 30 -6 -12
-8 -6 -9 24 -4 29 5 37 4 31 -5 -5 -9 3 -10 30 -5 28 5 36 4 30 -5 -5 -9 3
-10 30 -5 28 5 36 4 30 -5 -5 -9 3 -11 32 -6 29 5 35 4 23 -5 -12 -9 -5 -10
30 -5 33 5 41 3 30 -5 -11 -8 -3 -9 30 -4 34 4 41 3 30 -6 -12 -8 -6 -9 24 -4
29 5 37 4 31 -5 -5 -9 3 -10 30 -5 28 5 36 4 30 -5 -5 -9 3 -11 32 -6 29 5 35
4 23 -5 -12 -9 -5 -10 30 -5 33 5 41 3 30 -5 -11 -8 -3 -9 30 -4 34 4 41 3 30
-6 -12 -8 -6 -9 24 -4 29 5 37 4 31 -5 -5 -9 3 -10 30 -5 28 5 36 4 30 -5 -5
-9 3 -10 30 -5 28 5 36 4 30 -5 -5 -9 3 -11 32 -6 29 5 35 4 23 -5 -12 -9 -5
-10 30 -5 35 5 42 4 30 -5 -12 -10 -11 -11 8 -7 22 5 29 -8 14 -29 -4 -6 -52
-23 -107 -38 -55 -16 -102 -30 -104 -32 -2 -2 119 -4 271 -4 l275 0 13 40 c12
37 11 48 -12 123 -15 45 -38 127 -53 182 -33 127 -118 345 -237 616 -76 174
-103 223 -148 277 -60 71 -106 109 -94 77 4 -10 -35 16 -87 57 -182 144 -407
298 -594 405 -173 99 -805 272 -1475 402 -285 56 -1003 181 -1026 180 -10 -1
-91 -10 -179 -20z m295 -278 l0 -58 -46 -7 c-77 -10 -82 -9 -94 30 -7 19 -10
37 -8 38 6 5 133 55 141 56 4 0 7 -26 7 -59z m-310 -60 c0 -58 -1 -59 -31 -65
-66 -13 -95 -8 -107 19 -7 14 -12 31 -12 38 0 10 112 61 143 66 4 0 7 -25 7
-58z m-250 -10 l0 -59 -65 -7 c-54 -5 -65 -10 -65 -25 0 -14 -10 -21 -37 -25
-21 -3 -50 -8 -64 -10 -23 -3 -28 1 -42 35 l-15 38 32 13 c17 7 54 23 82 35
74 33 147 62 162 63 8 1 12 -17 12 -58z m790 -25 c0 -30 -4 -57 -9 -60 -4 -3
-34 -8 -65 -12 l-56 -7 -16 38 c-8 20 -14 38 -12 39 11 7 135 54 146 55 8 1
12 -16 12 -53z m-1180 -35 l0 -60 -44 -6 c-43 -7 -45 -9 -48 -44 l-3 -36 -59
-7 c-33 -4 -61 -6 -62 -5 -2 2 -10 19 -18 39 l-15 36 52 20 c44 17 52 23 50
43 -2 21 6 27 65 50 37 15 70 27 75 28 4 0 7 -26 7 -58z m1548 -76 c-2 -1 -30
-5 -64 -9 l-61 -7 -15 38 -14 38 75 31 76 30 3 -59 c2 -33 2 -60 0 -62z m262
71 c0 -30 -3 -57 -7 -59 -5 -3 -34 -8 -66 -12 l-57 -7 -16 37 c-8 20 -14 38
-12 39 9 8 135 55 146 56 8 0 12 -17 12 -54z m-964 -104 c-6 -6 -119 -23 -123
-18 -1 1 -9 18 -17 38 l-15 35 77 30 77 31 3 -55 c2 -31 1 -58 -2 -61z m-273
-32 c-4 -4 -33 -10 -64 -14 l-57 -6 -15 38 c-8 20 -14 38 -13 39 1 1 35 15 76
31 l75 28 3 -54 c2 -30 -1 -58 -5 -62z m-928 -8 c-3 -3 -31 -9 -62 -12 l-56
-6 -14 34 c-8 19 -11 37 -8 40 4 4 37 19 73 33 l67 27 3 -55 c2 -30 0 -58 -3
-61z m1682 -8 c-2 -2 -44 -10 -93 -17 l-89 -12 -3 -57 c-3 -53 -4 -56 -34 -62
-17 -3 -46 -6 -64 -6 -33 0 -34 -1 -34 -40 0 -38 -1 -39 -37 -45 -21 -3 -50
-8 -65 -10 -21 -3 -28 1 -33 16 -5 15 -10 18 -18 10 -6 -6 -28 -11 -49 -11
l-38 0 0 -50 c0 -53 1 -55 30 -40 16 8 18 4 25 -47 8 -63 1 -73 -54 -73 -44 0
-81 -35 -81 -77 0 -30 -3 -32 -43 -38 -68 -10 -87 -4 -103 33 l-14 34 41 16
40 16 -7 63 c-4 43 -3 68 6 78 6 8 9 19 5 25 -3 5 5 14 18 19 14 6 36 22 50
37 25 26 25 29 11 62 -8 19 -14 38 -14 42 0 6 127 60 143 60 4 0 7 -9 7 -21 0
-15 5 -19 15 -15 12 4 15 -3 15 -29 l0 -34 66 27 c71 29 84 45 42 50 -30 4
-48 43 -44 96 2 25 10 31 77 57 41 16 75 29 76 29 1 0 3 -9 5 -19 3 -18 6 -18
67 6 44 18 65 23 70 15 5 -8 21 -6 56 7 l50 19 3 -55 c2 -30 1 -57 -1 -59z
m203 10 c0 -47 -3 -57 -20 -61 -16 -4 -20 -14 -20 -48 0 -40 -2 -43 -31 -49
-17 -3 -46 -6 -63 -6 -27 0 -34 5 -44 33 -16 44 -16 44 14 51 26 7 29 23 10
66 -5 11 10 22 61 42 38 15 74 27 81 27 8 1 12 -17 12 -55z m206 -71 c-2 -2
-30 -8 -61 -12 l-57 -8 -16 34 c-19 41 -16 45 68 76 l65 24 3 -55 c2 -30 1
-56 -2 -59z m504 57 c0 -59 0 -59 -32 -64 -98 -15 -98 -15 -114 22 -8 19 -12
38 -8 41 6 6 133 58 147 60 4 1 7 -26 7 -59z m-260 -9 c0 -58 -1 -59 -31 -65
-66 -13 -95 -8 -107 19 -7 14 -12 31 -12 38 0 10 112 62 143 66 4 1 7 -25 7
-58z m-2880 -45 c0 -30 -3 -57 -7 -59 -5 -3 -34 -8 -66 -11 l-57 -7 -16 36
c-8 21 -14 39 -12 40 6 6 133 54 146 54 8 1 12 -16 12 -53z m960 -6 c0 -52 -3
-60 -19 -60 -10 0 -38 -3 -63 -6 -40 -6 -45 -4 -56 20 -20 45 -15 53 51 79 88
36 87 36 87 -33z m1260 -19 l0 -58 -37 -7 c-89 -14 -97 -10 -116 58 -2 7 124
64 146 65 4 1 7 -25 7 -58z m1350 -30 l0 -58 -37 -7 c-75 -12 -91 -8 -109 25
-8 17 -12 35 -7 39 8 8 130 58 146 59 4 1 7 -25 7 -58z m-260 -10 l0 -58 -46
-7 c-26 -3 -54 -6 -64 -6 -16 0 -40 38 -40 64 0 11 113 62 143 65 4 1 7 -25 7
-58z m-1830 -11 c0 -59 -1 -61 -30 -66 -16 -4 -30 -12 -30 -20 0 -12 -17 -17
-98 -28 -17 -3 -27 4 -38 26 -17 33 -13 58 10 58 8 0 19 6 23 14 6 10 132 70
161 75 1 1 2 -26 2 -59z m1153 -90 c-4 -4 -33 -10 -64 -14 -53 -6 -56 -5 -66
22 -11 27 -11 27 -12 -10 -1 -34 -4 -38 -28 -38 -16 0 -44 -3 -64 -6 -34 -6
-37 -4 -51 32 l-16 39 77 31 c57 23 77 27 79 17 4 -16 -3 -18 78 15 l69 29 3
-55 c2 -30 -1 -58 -5 -62z m267 66 c0 -30 -3 -57 -7 -59 -5 -3 -34 -8 -65 -12
l-57 -7 -16 37 c-8 21 -14 39 -13 40 11 7 136 54 146 55 8 0 12 -17 12 -54z
m170 -6 c0 -52 -3 -60 -19 -60 -10 0 -39 -3 -63 -6 -45 -6 -46 -6 -58 30 -7
21 -10 39 -8 41 7 7 123 53 136 54 8 1 12 -17 12 -59z m-2839 7 c22 8 43 12
47 8 7 -7 9 -142 1 -149 -2 -2 -32 -6 -65 -10 -57 -6 -62 -5 -67 15 -5 19 -10
21 -46 15 -39 -6 -41 -5 -56 30 -8 21 -13 39 -11 41 2 2 37 17 77 33 59 23 75
26 77 15 3 -12 10 -12 43 2z m405 -101 l34 6 0 -76 c0 -84 6 -78 -87 -90 -36
-5 -44 -3 -54 16 -6 12 -12 35 -13 52 -1 24 -7 32 -25 34 -22 3 -23 1 -19 -43
4 -50 7 -48 -79 -59 -40 -6 -43 -4 -58 25 -9 17 -14 36 -12 42 3 7 34 23 71
37 68 25 72 29 56 59 -8 16 1 22 68 47 l77 29 3 -43 3 -43 35 7z m1484 5 c0
-58 -1 -59 -31 -65 -17 -3 -46 -6 -64 -6 -29 0 -35 4 -45 36 -7 19 -10 36 -8
38 6 4 133 54 141 55 4 1 7 -25 7 -58z m706 -118 c-2 -2 -30 -8 -61 -12 l-57
-8 -15 35 c-8 19 -11 38 -6 43 4 4 37 19 73 32 l65 24 3 -55 c2 -30 1 -56 -2
-59z m460 0 c-2 -3 -29 -8 -58 -12 -53 -6 -53 -6 -56 -43 -3 -32 -7 -38 -26
-38 -13 0 -38 -3 -55 -6 -27 -6 -31 -11 -31 -40 0 -32 -2 -33 -47 -39 -27 -3
-56 -8 -66 -10 -12 -2 -22 7 -32 32 -8 19 -13 38 -10 42 2 4 29 16 60 26 48
17 55 23 51 40 -4 17 5 24 62 46 47 19 67 31 67 44 0 12 21 25 70 45 l70 28 3
-55 c2 -30 1 -57 -2 -60z m-733 -93 c-4 -4 -33 -10 -64 -14 l-55 -6 -13 36
c-7 19 -11 37 -9 40 3 2 36 17 74 32 l69 29 3 -55 c2 -30 -1 -58 -5 -62z
m-243 50 l0 -59 -37 -6 c-21 -3 -50 -8 -64 -10 -21 -3 -29 2 -43 32 -9 19 -14
38 -11 41 6 6 135 59 148 61 4 1 7 -26 7 -59z m-1450 -40 l0 -59 -37 -6 c-21
-3 -50 -8 -65 -10 -24 -4 -30 0 -43 32 -9 20 -12 40 -8 44 8 8 131 57 146 58
4 1 7 -26 7 -59z m2900 -14 c0 -30 -3 -57 -7 -59 -5 -3 -34 -8 -65 -11 l-57
-7 -16 37 c-8 20 -14 38 -13 39 11 7 136 54 146 55 8 0 12 -17 12 -54z m-1911
-53 c1 -18 -6 -23 -36 -28 -21 -3 -51 -8 -66 -10 -25 -4 -30 0 -43 31 -8 20
-12 39 -9 42 4 4 37 19 73 33 l67 27 7 -37 c4 -20 7 -46 7 -58z m951 28 l0
-58 -37 -7 c-71 -11 -89 -8 -101 19 -7 14 -12 31 -12 38 0 10 116 64 143 66 4
1 7 -25 7 -58z m-3064 -108 c-2 -3 -31 -7 -65 -10 l-60 -6 -15 38 c-9 21 -15
39 -14 41 2 1 37 16 78 32 l75 30 3 -60 c2 -33 1 -62 -2 -65z m1574 47 c4 0
29 9 53 19 25 11 48 17 51 14 9 -9 7 -111 -1 -116 -5 -3 -36 -8 -69 -12 -57
-6 -62 -5 -67 15 -5 20 -10 21 -55 15 l-50 -7 -12 37 c-7 20 -9 39 -5 43 3 4
37 18 73 33 l67 25 3 -33 c2 -18 7 -33 12 -33z m-1140 -10 c0 -66 4 -62 -87
-74 -28 -4 -43 -2 -46 7 -3 6 -6 0 -6 -14 -1 -22 -7 -27 -38 -33 -81 -13 -98
-9 -111 27 -7 18 -12 36 -12 39 0 8 122 56 158 63 17 3 49 14 73 24 67 30 69
29 69 -39z m2330 1 l0 -58 -37 -7 c-88 -14 -99 -9 -116 59 -2 7 121 62 146 64
4 1 7 -25 7 -58z m-1800 9 c0 -41 8 -47 41 -30 18 10 19 7 19 -53 0 -64 0 -65
-31 -71 -17 -3 -47 -6 -66 -6 -29 0 -36 5 -44 30 -7 20 -18 30 -30 30 -13 0
-25 12 -35 36 -8 20 -13 38 -11 40 5 5 140 62 150 63 4 1 7 -17 7 -39z m1538
-85 c-2 -1 -30 -5 -63 -9 l-61 -7 -13 36 c-7 20 -11 38 -9 41 3 2 36 17 74 32
l69 29 3 -60 c2 -33 2 -60 0 -62z m-1728 -9 l0 -63 -52 -7 c-29 -3 -60 -6 -68
-6 -17 0 -47 67 -35 78 7 7 133 59 148 61 4 1 7 -28 7 -63z m1270 5 l0 -58
-37 -7 c-78 -12 -90 -9 -106 32 l-15 37 67 27 c36 15 72 27 79 27 8 1 12 -17
12 -58z m1210 0 l0 -58 -46 -7 c-77 -10 -82 -9 -94 30 -7 19 -10 37 -8 39 7 7
123 53 136 54 8 1 12 -17 12 -58z m-1880 -11 c0 -67 2 -65 -77 -74 -55 -7 -53
-8 -75 68 -3 7 119 62 145 65 4 1 7 -26 7 -59z m2630 -49 l0 -58 -37 -7 c-71
-11 -89 -8 -101 19 -7 14 -12 31 -12 38 0 10 116 64 143 66 4 1 7 -25 7 -58z
m-327 -71 c-4 -4 -33 -10 -64 -14 l-55 -6 -13 36 c-7 19 -10 38 -7 42 4 3 37
17 74 32 l67 26 3 -55 c2 -29 -1 -57 -5 -61z m-243 50 l0 -59 -37 -6 c-21 -3
-50 -8 -64 -10 -21 -3 -29 2 -43 32 -9 19 -14 38 -11 42 7 6 134 58 148 60 4
1 7 -26 7 -59z m-1172 -116 c-2 -1 -33 -6 -68 -10 l-65 -6 -13 37 c-8 20 -12
39 -9 41 2 3 38 18 78 33 l74 29 3 -60 c2 -33 2 -62 0 -64z m372 46 c0 -66 4
-62 -87 -74 -44 -6 -44 -6 -65 68 -3 7 119 62 145 65 4 1 7 -26 7 -59z m-1380
-24 l0 -64 -65 -7 c-36 -4 -68 -6 -70 -3 -2 2 -11 20 -19 40 l-16 36 78 31
c42 16 80 30 85 30 4 1 7 -28 7 -63z m1760 5 l0 -58 -37 -7 c-78 -12 -90 -9
-103 30 -7 19 -10 37 -8 39 7 7 123 53 136 54 8 1 12 -17 12 -58z m610 -21 c0
-23 0 -23 34 -10 l26 10 0 -61 c0 -66 2 -65 -77 -73 -42 -4 -53 -2 -53 9 0 10
-10 15 -30 15 -25 0 -32 6 -45 37 -8 20 -14 37 -13 38 14 8 136 53 146 54 6 1
12 -8 12 -19z m560 -100 l0 -59 -37 -6 c-21 -3 -50 -8 -65 -10 -24 -4 -30 0
-43 32 -9 20 -12 40 -8 44 8 8 131 57 146 58 4 1 7 -26 7 -59z m-2060 -40 c0
-67 2 -65 -78 -75 -48 -5 -53 -4 -61 17 -24 65 -26 62 47 90 94 36 92 37 92
-32z"/>
<path d="M4257 6760 c-3 -12 0 -20 8 -20 8 0 11 8 8 20 -3 11 -7 20 -8 20 -1
0 -5 -9 -8 -20z"/>
<path d="M273 4926 c-40 -23 -84 -53 -98 -66 l-25 -23 77 -34 c43 -18 94 -36
114 -39 64 -11 65 -15 33 -90 -16 -38 -45 -89 -65 -114 -50 -63 -56 -77 -64
-141 l-7 -56 116 21 c63 12 119 26 125 31 5 6 31 46 58 91 35 58 54 104 68
163 l19 82 -44 88 -43 88 -81 17 c-44 10 -88 19 -96 21 -8 2 -47 -15 -87 -39z"/>
<path d="M1884 4804 c25 -33 65 -82 87 -111 l40 -51 -10 -99 c-6 -54 -20 -150
-32 -214 l-22 -115 62 -93 c35 -51 66 -89 71 -85 4 5 22 49 40 97 18 48 37 90
42 93 4 3 40 -18 79 -46 l71 -52 54 53 c39 38 56 50 66 42 7 -5 49 -38 93 -73
44 -35 86 -68 93 -74 14 -10 5 11 -109 264 -68 151 -73 158 -177 274 -102 113
-111 120 -212 171 -62 31 -125 55 -155 59 -27 4 -68 9 -89 12 l-39 6 47 -58z"/>
<path d="M7555 4849 c-60 -4 -147 -13 -191 -19 -59 -8 -92 -9 -120 -1 -32 9
-50 7 -107 -11 -63 -21 -67 -24 -63 -48 3 -14 8 -43 11 -65 l6 -40 130 -23
130 -22 62 31 c66 33 337 198 337 205 0 5 -57 3 -195 -7z"/>
<path d="M4303 4758 c-29 -70 -30 -76 -20 -146 l10 -73 66 -56 c36 -31 99 -94
140 -140 l74 -85 67 7 c37 4 75 7 85 8 14 2 26 -23 60 -122 l41 -125 65 -44
64 -43 80 6 c117 9 115 8 115 68 0 29 10 96 22 150 l22 98 -42 84 -42 84 32
86 31 86 36 -5 c86 -13 151 -18 151 -12 0 4 -34 50 -75 102 l-75 94 -120 0
-120 0 -89 -45 c-49 -24 -129 -54 -177 -66 l-87 -22 -36 43 c-20 24 -43 53
-53 64 l-16 21 -44 -21 -43 -21 -38 48 c-21 27 -42 49 -46 49 -5 0 -22 -33
-38 -72z"/>
<path d="M5758 4783 c-16 -2 -28 -8 -28 -12 0 -4 13 -45 29 -92 15 -46 33
-116 40 -154 13 -75 29 -135 38 -135 2 0 36 18 75 41 62 36 73 47 94 95 l24
55 -34 67 c-29 58 -43 72 -95 105 -59 36 -78 40 -143 30z"/>
<path d="M2300 4766 c0 -2 65 -54 144 -116 l143 -113 11 -108 c10 -100 15
-116 63 -211 28 -57 76 -138 106 -181 47 -66 54 -82 49 -110 -5 -23 3 -14 30
38 20 39 38 72 40 74 3 3 33 -23 67 -57 l63 -62 76 78 c76 76 77 78 84 140 3
34 10 62 14 62 4 0 32 -38 64 -85 31 -47 59 -85 64 -85 4 0 25 11 47 25 22 13
45 25 51 25 11 0 199 -239 192 -245 -2 -2 -64 3 -138 11 -74 7 -155 14 -180
14 -25 -1 -130 -23 -235 -50 l-190 -49 -50 33 c-28 18 -118 55 -203 84 l-153
51 -17 -28 c-9 -16 -35 -63 -57 -105 -22 -41 -42 -76 -45 -76 -3 0 -23 50 -45
111 -22 61 -47 115 -56 120 -14 7 -31 -8 -86 -73 l-69 -83 -44 3 c-25 2 -164
12 -310 23 -146 10 -285 19 -308 19 -38 0 -58 10 -152 75 -60 41 -113 75 -119
75 -6 0 -65 -29 -132 -65 -148 -79 -144 -80 -259 58 -45 54 -87 96 -94 94 -6
-3 -52 -22 -102 -42 l-91 -37 -65 41 -66 41 14 73 c19 98 19 97 -21 97 -33 0
-35 -2 -36 -32 0 -18 -6 -121 -13 -228 -8 -123 -10 -199 -4 -207 6 -7 141
-104 301 -215 l292 -203 125 -7 c69 -3 203 -6 297 -7 95 -1 273 -8 395 -17
123 -9 330 -23 461 -33 l237 -16 37 37 c21 22 47 38 59 38 13 0 148 -17 301
-38 l278 -39 285 7 c157 4 564 4 905 2 539 -4 645 -3 806 13 112 10 209 14
245 10 32 -4 487 -9 1011 -11 l951 -4 137 36 c93 24 140 32 144 25 4 -6 43
-26 86 -45 87 -38 83 -32 99 -147 l7 -46 -75 -32 c-67 -30 -108 -37 -393 -76
-299 -41 -313 -43 -228 -46 l90 -2 -105 -8 c-58 -4 -154 -6 -215 -4 -60 2
-360 7 -665 11 l-555 6 -190 -66 c-104 -36 -194 -66 -200 -66 -14 1 111 55
286 124 l146 58 -18 97 c-10 53 -18 103 -19 113 0 13 -16 18 -85 23 -47 4 -88
5 -91 2 -3 -3 3 -44 13 -92 l18 -88 -31 -26 c-17 -14 -66 -57 -108 -95 l-76
-68 -232 -59 c-292 -74 -347 -82 -700 -110 l-287 -23 -498 38 c-274 20 -583
46 -688 57 -219 23 -190 9 -365 176 -91 87 -113 113 -104 124 13 16 47 149 40
156 -6 6 -275 43 -311 42 -22 -1 -14 -6 35 -20 112 -34 111 -24 11 -123 l-90
-89 -258 -17 -258 -17 272 -2 c261 -1 277 0 383 25 61 14 113 24 116 21 2 -2
-34 -19 -81 -37 l-85 -33 -278 7 c-497 13 -683 24 -817 45 -71 12 -188 31
-260 42 -71 11 -146 25 -165 32 -19 6 -39 10 -45 8 -5 -1 -7 0 -3 4 3 4 -11
23 -33 42 -46 42 -122 140 -152 198 -12 22 -35 94 -53 160 l-31 120 -17 -72
c-20 -88 -20 -105 -1 -240 24 -165 14 -149 107 -171 94 -23 78 -27 -29 -8
l-72 13 6 -61 c3 -34 7 -67 7 -75 1 -10 -36 -29 -103 -56 -58 -23 -106 -46
-109 -53 -2 -7 4 -103 13 -214 16 -199 17 -203 46 -235 16 -19 29 -35 29 -37
0 -2 -11 -1 -25 2 -14 2 -25 2 -25 -2 0 -12 70 -521 81 -588 l11 -67 196 -232
c108 -127 215 -252 239 -278 l43 -46 -19 45 c-10 25 -78 166 -150 314 l-131
268 45 171 c25 94 48 173 50 176 5 5 625 -92 715 -112 l55 -12 -100 -5 -100
-5 465 -108 c282 -65 532 -117 635 -132 94 -13 377 -56 630 -94 272 -41 514
-72 592 -77 l133 -7 3 -516 2 -516 3 518 c1 336 5 517 12 517 7 0 10 -178 10
-514 l0 -514 193 -6 c468 -15 1305 -7 1537 13 429 39 595 64 1060 162 326 69
585 160 751 265 21 13 59 29 86 35 182 45 332 179 403 361 68 176 102 448 82
656 -7 66 -15 127 -18 135 -3 9 2 17 13 21 11 3 69 79 129 169 l110 162 -17
153 -18 152 -39 48 c-22 26 -51 65 -66 86 -23 34 -24 40 -10 50 10 8 27 68 48
168 l33 156 -41 -5 c-23 -2 -57 -6 -76 -8 -51 -6 -17 10 53 26 59 13 59 13
116 98 31 47 67 102 79 122 l22 37 -24 78 c-13 44 -38 125 -56 182 -17 56 -35
102 -39 102 -18 0 -103 -85 -120 -119 -10 -20 -31 -73 -46 -119 l-27 -83 -36
7 c-48 8 -134 37 -202 67 l-55 25 -170 -86 -170 -85 -165 32 c-91 17 -174 31
-183 31 -10 0 -50 -22 -90 -48 l-72 -48 -170 32 c-93 18 -175 33 -181 34 -6 0
-91 -84 -189 -187 -98 -104 -186 -189 -196 -191 -25 -5 -84 28 -169 94 -163
126 -186 150 -286 315 l-96 157 -84 -34 -84 -34 -126 25 c-70 13 -129 26 -131
28 -2 2 -37 52 -77 111 -41 59 -76 104 -79 99 -3 -4 -21 -48 -42 -98 -20 -49
-38 -91 -40 -93 -1 -1 -96 43 -211 98 l-209 101 -55 -63 c-30 -35 -76 -85
-102 -112 -27 -27 -48 -52 -48 -56 0 -7 -254 -212 -266 -214 -17 -2 -46 149
-58 309 l-13 170 -73 158 c-40 87 -71 159 -69 160 2 1 31 16 63 32 57 28 61
34 89 99 15 37 26 70 24 73 -3 2 -39 -5 -79 -16 -47 -13 -104 -21 -153 -21
l-80 0 -86 86 -87 87 -139 -21 -138 -21 -200 19 c-179 17 -385 26 -385 16z"/>
<path d="M7631 4685 c-102 -75 -121 -94 -183 -184 -38 -56 -73 -101 -77 -101
-7 0 -80 80 -131 143 -15 19 -19 18 -119 -33 -57 -28 -105 -49 -108 -46 -3 3
-18 51 -34 107 -15 56 -30 103 -33 106 -2 3 -19 -41 -36 -97 l-31 -101 -27 17
c-15 9 -42 28 -61 40 -19 13 -36 22 -38 20 -2 -1 2 -50 8 -107 10 -95 14 -109
50 -165 21 -33 39 -64 39 -69 0 -5 -26 -48 -57 -97 l-58 -88 -124 0 c-107 0
-139 -4 -240 -32 -64 -17 -121 -35 -127 -39 -13 -10 -69 -217 -62 -225 3 -3
55 27 115 66 l110 70 148 0 c114 0 167 -5 235 -21 l88 -20 69 44 c47 31 91 50
143 62 41 10 80 22 86 26 6 5 19 45 29 89 l18 80 56 -6 c144 -16 125 -3 231
-167 70 -109 96 -143 101 -130 3 10 14 63 23 119 l17 100 -40 103 c-23 56 -39
106 -37 110 3 4 23 14 46 21 22 7 44 18 49 24 4 6 22 52 38 102 30 89 30 91
12 115 -24 32 -24 39 10 152 16 54 26 97 23 97 -4 -1 -58 -39 -121 -85z"/>
<path d="M1627 4699 l-88 -31 -42 -84 -41 -84 -63 0 -62 0 -45 -56 -46 -56 0
-97 0 -96 54 -33 54 -32 -21 -81 c-16 -65 -17 -83 -7 -89 7 -4 51 -11 97 -15
l84 -7 57 49 c98 83 85 82 132 14 22 -34 43 -61 46 -61 3 0 32 18 66 41 33 23
63 37 67 33 4 -5 31 -37 61 -72 29 -34 55 -60 57 -58 3 2 -5 68 -16 146 -18
119 -26 152 -52 197 l-31 54 31 86 c44 119 43 194 -1 269 -30 49 -38 55 -88
70 -89 26 -110 25 -203 -7z"/>
<path d="M728 4602 l-65 -67 -18 -110 -18 -110 -64 -60 -63 -60 185 10 c101 6
188 15 193 20 5 6 22 47 37 93 14 45 28 82 31 82 2 0 31 -41 65 -91 55 -82 62
-89 73 -72 7 10 36 58 65 106 l53 88 -34 97 -33 97 -140 17 c-77 9 -154 19
-171 22 -28 4 -38 -3 -96 -62z"/>
<path d="M5410 4642 c0 -2 27 -36 61 -75 60 -69 61 -71 54 -116 -11 -77 -14
-83 -43 -77 -15 2 -48 8 -75 11 l-48 6 3 -152 3 -153 125 -38 c69 -21 131 -40
137 -43 8 -3 0 -27 -27 -73 -22 -38 -40 -75 -40 -83 0 -15 98 -350 103 -356 2
-1 36 68 75 155 39 86 87 191 106 233 l35 77 91 -20 c50 -11 94 -18 97 -15 3
3 14 79 25 169 l20 163 77 78 c42 43 69 77 61 75 -8 -2 -67 -16 -130 -32
l-116 -29 -53 -75 -54 -74 -127 127 -128 128 -7 77 c-4 42 -10 81 -13 87 -6
10 -212 34 -212 25z"/>
<path d="M3790 4632 c0 -4 13 -41 29 -82 l28 -74 -28 -86 c-16 -47 -31 -90
-33 -97 -3 -8 -33 -2 -97 18 -51 16 -98 29 -104 29 -5 0 18 -19 53 -42 51 -33
62 -46 58 -62 -2 -12 -8 -66 -11 -121 -7 -101 -1 -140 47 -293 l10 -33 69 88
c38 48 104 142 146 208 41 66 78 122 80 125 2 2 12 -1 21 -7 227 -146 296
-186 367 -212 l84 -32 43 31 c33 24 46 41 54 76 l12 44 -157 124 c-110 87
-188 160 -265 245 -60 67 -119 123 -130 126 -36 8 -236 35 -256 35 -11 0 -20
-3 -20 -8z"/>
<path d="M6350 4601 c-25 -10 -45 -23 -45 -27 1 -5 4 -50 9 -101 l8 -91 -41
-71 c-72 -123 -104 -208 -96 -258 7 -51 14 -52 92 -18 108 48 151 84 188 156
l34 66 -14 94 c-14 96 -64 261 -81 265 -5 2 -29 -5 -54 -15z"/>
<path d="M5357 3918 c-4 -24 -9 -63 -12 -88 l-6 -45 76 -75 77 -75 -8 80 c-9
98 -9 95 1 178 l7 67 -65 0 -65 0 -5 -42z"/>
<path d="M5895 3797 c-22 -28 -48 -69 -58 -92 -38 -83 -108 -267 -104 -271 12
-13 110 41 194 106 89 68 98 78 129 147 19 41 34 76 34 78 0 6 -137 85 -147
85 -4 -1 -26 -24 -48 -53z"/>
<path d="M6903 2963 c9 -2 25 -2 35 0 9 3 1 5 -18 5 -19 0 -27 -2 -17 -5z"/>
</g>
</svg>
